OpenSim_Sub07_EMGBaseline_GRF.mot
version=1
nRows=40
nColumns=19
inDegrees=no
endheader
time	lFx	lFy	lFz	lCOPx	lCOPy	lCOPz	rFx	rFy	rFz	rCOPx	rCOPy	rCOPz	lMx	lMy	lMz	rMx	rMy	rMz
17.07000000	-3.01870213	0.40971339	-1.65620870	0.00101572	0	-0.00060636	29.66313216	744.49443616	-37.90841040	0.70498990	0	-0.44072549	0	0.00484589	0	0	-0.12904844	-0.00000000
17.08000000	-3.02470046	0.38859735	-1.62134254	0.00139433	0	-0.00083496	30.32651762	744.72961232	-38.75303499	0.70025673	0	-0.43973887	0	0.01085253	0	0	-0.31710060	0
17.09000000	-2.95265333	0.20652526	-1.63949582	0.00041358	0	-0.00025476	31.00178165	743.29750509	-39.66708783	0.69564486	0	-0.43853097	0	0.01482135	0	0	-0.55876948	0
17.10000000	-2.86403940	-0.19978221	-1.66965507	-0.00402204	0	0.00238679	31.68015924	740.33345129	-40.66567448	0.69115742	0	-0.43714471	0	0.00418498	0	0	-0.85065823	0.00000000
17.11000000	-2.97743949	-0.78296803	-1.62432003	-0.01387111	0	0.00826687	32.46752733	736.27123732	-41.74121365	0.68681492	0	-0.43566443	0	-0.04339952	0	0	-1.08242698	0
17.12000000	-3.80544895	-1.07530933	-1.41737247	-0.02717875	0	0.01623680	33.48537008	731.89511554	-42.50054304	0.68258201	0	-0.43415360	0	-0.14862212	0	0	-1.23886525	0
17.13000000	-5.99516588	0.39150756	-0.93907157	-0.03053846	0	0.01831916	35.08032595	728.20090124	-42.84333372	0.67829809	0	-0.43277161	0	-0.29004886	0	0	-1.35773741	0.00000000
17.14000000	-9.52556560	6.13344411	-0.26722794	0.00964563	0	-0.00553223	37.58514977	726.14228714	-42.87074718	0.67367608	0	-0.43167543	0	-0.32366225	0	0	-1.40216927	0
17.15000000	-12.18206819	18.45399550	0.10178996	0.14530289	0	-0.08638641	40.84301712	725.45913810	-42.42813348	0.66849588	0	-0.43090468	0	0.10979242	0	0	-1.37334697	-0.00000000
17.16000000	-9.84341809	39.29571851	-0.90897438	0.40788652	0	-0.24326664	44.31357086	723.99565647	-41.41794150	0.66299796	0	-0.43037957	0	1.56312873	0	0	-1.29227186	-0.00000000
17.17000000	-0.03198981	69.34805464	-4.73058910	0.70791168	0	-0.42342519	47.83339874	719.54688553	-40.01217406	0.65747592	0	-0.43000372	0	4.35705320	0	0	-1.21511355	-0.00000000
17.18000000	12.04462609	104.04880286	-10.20479672	0.89321484	0	-0.53820939	51.44947952	711.10341557	-38.54822462	0.65212985	0	-0.42971007	0	7.77294749	0	0	-1.15595029	-0.00000000
17.19000000	17.90052085	135.38655985	-13.97299127	0.95877327	0	-0.58295902	55.06205890	698.55195336	-37.18448968	0.64696637	0	-0.42943835	0	10.60730290	0	0	-1.08500842	-0.00000000
17.20000000	15.52938704	160.93137961	-14.56644320	0.96265562	0	-0.58896639	58.34859702	682.27045591	-35.64571569	0.64206360	0	-0.42913773	0	12.21915987	0	0	-1.00594796	-0.00000000
17.21000000	8.35002699	187.33396025	-12.30328627	0.95137640	0	-0.58294911	60.99856733	662.37825014	-33.54310068	0.63732606	0	-0.42886956	0	12.86985599	0	0	-0.85364174	-0.00000000
17.22000000	-0.75832785	222.83846390	-7.80608039	0.94365587	0	-0.57762222	62.91840009	638.64096488	-30.71860972	0.63255048	0	-0.42869720	0	13.09705191	0	0	-0.58602828	-0.00000000
17.23000000	-9.66884650	266.62785701	-2.12887186	0.94162391	0	-0.57565906	64.20209011	610.83393860	-27.32683419	0.62764608	0	-0.42863322	0	13.20466663	0	0	-0.25580793	0.00000000
17.24000000	-16.47651836	307.71777003	3.28829113	0.94206261	0	-0.57584763	65.03739212	579.05300093	-23.57937783	0.62293683	0	-0.42863909	0	13.17790970	0	0	0.08026038	0.00000000
17.25000000	-21.21333529	336.29559316	7.59145128	0.94184341	0	-0.57685464	65.43110067	543.47740673	-19.54030340	0.61853341	0	-0.42871026	0	12.96420637	0	0	0.43772168	-0.00000000
17.26000000	-25.74338532	352.42993222	11.35101573	0.93991632	0	-0.57800940	65.04428512	504.22284339	-15.04047971	0.61432676	0	-0.42883443	0	12.47689197	0	0	0.81434231	0
17.27000000	-30.88624429	364.14119127	15.53242833	0.93692655	0	-0.57914356	63.22249576	461.50296024	-10.34987492	0.61012393	0	-0.42901157	0	11.74451368	0	0	1.21724885	0
17.28000000	-35.91388921	380.23847781	20.72155376	0.93376109	0	-0.58019512	59.96761263	415.87795086	-6.06732093	0.60609830	0	-0.42909787	0	10.87813623	0	0	1.60518489	0
17.29000000	-40.03597192	405.08572642	26.24725322	0.93014239	0	-0.58099712	55.67621997	368.33840838	-2.76837317	0.60236388	0	-0.42889216	0	10.19981824	0	0	1.82015745	0
17.30000000	-42.74499150	437.70169687	30.58901856	0.92570727	0	-0.58142314	50.81048961	319.94474140	-0.85521485	0.59885398	0	-0.42856813	0	10.07353916	0	0	1.76016201	0
17.31000000	-43.84926722	474.46204021	33.08346197	0.92044252	0	-0.58152817	45.47649150	271.66375617	-0.16756321	0.59613368	0	-0.42893983	0	10.53646408	0	0	1.50817088	0
17.32000000	-43.79678169	512.25082957	34.39751705	0.91503940	0	-0.58171563	38.82222915	224.90353266	-0.42051816	0.59515288	0	-0.43114564	0	11.27871022	0	0	1.15076729	0
17.33000000	-43.43436090	549.40763160	35.45918163	0.91085370	0	-0.58274209	30.77498457	181.36723211	-1.49105935	0.59661244	0	-0.43581538	0	11.97109516	0	0	0.83767567	0
17.34000000	-43.41344601	585.20876258	36.87852405	0.90893569	0	-0.58525271	22.49137848	142.34307624	-3.00444715	0.59842621	0	-0.44099284	0	12.44016433	0	0	0.56665213	0
17.35000000	-43.18299482	618.22823832	38.72785682	0.90806930	0	-0.58871229	15.33451225	108.72903318	-4.52842621	0.59302697	0	-0.43847947	0	12.77642540	0	0	0.32858477	0.00000000
17.36000000	-42.10961657	644.60844671	40.73975059	0.90326660	0	-0.58973559	9.59914530	81.11788787	-5.57159769	0.56399406	0	-0.41156743	0	13.01922212	0	0	0.06443993	-0.00000000
17.37000000	-40.09646813	654.78097619	42.12423875	0.88204144	0	-0.57981864	5.26827071	58.99316050	-5.87087922	0.49049160	0	-0.33968286	0	12.99566186	0	0	-0.27401894	0.00000000
17.38000000	-36.72430272	633.00124781	41.57447323	0.82499869	0	-0.54578297	2.41218627	40.80521966	-5.47417337	0.36202997	0	-0.22438306	0	12.37988013	0	0	-0.50847719	-0.00000000
17.39000000	-31.63574581	569.83668020	38.42218593	0.72041406	0	-0.47972219	0.67366703	25.40999127	-4.45416745	0.20499032	0	-0.10842388	0	10.93523254	0	0	-0.44925167	0.00000000
17.40000000	-26.25297657	497.16174615	34.77914318	0.60656037	0	-0.40747160	-0.40419325	12.90714095	-2.96006297	0.07383772	0	-0.02961831	0	9.25223805	0	0	-0.23544712	-0.00000000
17.41000000	-25.72229922	519.35767118	37.80625703	0.60912768	0	-0.41383413	-0.90803561	4.83181235	-1.66226774	0.00550363	0	0.00470097	0	9.29372196	0	0	-0.07145497	-0.00000000
17.42000000	-29.33682126	625.43942646	46.29428815	0.71555900	0	-0.49036508	-0.76826716	0.73922579	-0.63310784	-0.01503287	0	0.01160319	0	10.94846098	0	0	0.00445060	-0.00000000
17.43000000	-31.94896506	713.43499208	52.97323156	0.80461974	0	-0.55520186	-0.32292883	-0.85157186	0.37225173	-0.01357825	0	0.00812040	0	12.29515108	0	0	0.02243445	-0.00000000
17.44000000	-32.26031680	757.94139136	56.09396349	0.84603597	0	-0.58786522	0.03282890	-1.07074355	0.49393060	-0.00698892	0	0.00349062	0	12.85342532	0	0	0.01692387	-0.00000000
17.45000000	-31.01411408	771.01358782	56.80417454	0.85380309	0	-0.59769748	0.20251572	-0.77238666	0.32965690	-0.00205700	0	0.00067431	0	12.78480554	0	0	0.00773583	-0.00000000
17.46000000	-29.13762578	768.84664318	56.55025663	0.84697354	0	-0.59759548	0.20843499	-0.42392430	0.38970567	0.00018377	0	-0.00037659	0	12.39360005	0	0	0.00177721	0.00000000
